<svg width="154" height="52" viewBox="0 0 154 52" fill="none" xmlns="http://www.w3.org/2000/svg">
<path d="M14.016 28.496C14.9547 27.472 15.9147 26.4053 16.896 25.296C17.92 24.1867 18.9013 23.0987 19.84 22.032C20.7787 20.9227 21.6533 19.8773 22.464 18.896C23.3173 17.9147 24.0427 17.0613 24.64 16.336H35.968C33.7067 18.9387 31.488 21.4347 29.312 23.824C27.1787 26.1707 24.832 28.6027 22.272 31.12C23.552 32.272 24.8747 33.6587 26.24 35.28C27.6053 36.8587 28.928 38.5013 30.208 40.208C31.488 41.9147 32.6613 43.6213 33.728 45.328C34.7947 47.0347 35.6907 48.592 36.416 50H25.472C24.7893 48.8907 24 47.6747 23.104 46.352C22.2507 44.9867 21.3333 43.6427 20.352 42.32C19.3707 40.9547 18.3253 39.6533 17.216 38.416C16.1493 37.1787 15.0827 36.1333 14.016 35.28V50H4.48V1.872L14.016 0.335999V28.496ZM49.7985 50H40.2625V16.336H49.7985V50ZM50.6945 6.608C50.6945 8.35733 50.1185 9.744 48.9665 10.768C47.8572 11.7493 46.5345 12.24 44.9985 12.24C43.4625 12.24 42.1185 11.7493 40.9665 10.768C39.8572 9.744 39.3025 8.35733 39.3025 6.608C39.3025 4.85866 39.8572 3.49333 40.9665 2.512C42.1185 1.488 43.4625 0.975998 44.9985 0.975998C46.5345 0.975998 47.8572 1.488 48.9665 2.512C50.1185 3.49333 50.6945 4.85866 50.6945 6.608ZM55.2425 7.952L64.7785 6.416V16.336H76.2345V24.272H64.7785V36.112C64.7785 38.1173 65.1198 39.7173 65.8025 40.912C66.5278 42.1067 67.9572 42.704 70.0905 42.704C71.1145 42.704 72.1598 42.6187 73.2265 42.448C74.3358 42.2347 75.3385 41.9573 76.2345 41.616L77.5785 49.04C76.4265 49.5093 75.1465 49.9147 73.7385 50.256C72.3305 50.5973 70.6025 50.768 68.5545 50.768C65.9518 50.768 63.7972 50.4267 62.0905 49.744C60.3838 49.0187 59.0185 48.0373 57.9945 46.8C56.9705 45.52 56.2452 43.984 55.8185 42.192C55.4345 40.4 55.2425 38.416 55.2425 36.24V7.952ZM79.23 33.168C79.23 30.736 79.614 28.4533 80.382 26.32C81.1927 24.144 82.3447 22.2667 83.838 20.688C85.3313 19.0667 87.1447 17.7867 89.278 16.848C91.4113 15.9093 93.8433 15.44 96.574 15.44C98.366 15.44 100.009 15.6107 101.502 15.952C102.995 16.2507 104.446 16.6987 105.854 17.296L103.87 24.912C102.974 24.5707 101.993 24.272 100.926 24.016C99.8593 23.76 98.6647 23.632 97.342 23.632C94.526 23.632 92.414 24.5067 91.006 26.256C89.6407 28.0053 88.958 30.3093 88.958 33.168C88.958 36.1973 89.598 38.544 90.878 40.208C92.2007 41.872 94.4833 42.704 97.726 42.704C98.878 42.704 100.115 42.5973 101.438 42.384C102.761 42.1707 103.977 41.8293 105.086 41.36L106.43 49.168C105.321 49.6373 103.934 50.0427 102.27 50.384C100.606 50.7253 98.7713 50.896 96.766 50.896C93.694 50.896 91.0487 50.448 88.83 49.552C86.6113 48.6133 84.7767 47.3547 83.326 45.776C81.918 44.1973 80.8727 42.3413 80.19 40.208C79.55 38.032 79.23 35.6853 79.23 33.168ZM111.55 50V1.872L121.086 0.335999V16.464C121.726 16.2507 122.537 16.0587 123.518 15.888C124.542 15.6747 125.523 15.568 126.462 15.568C129.193 15.568 131.454 15.952 133.246 16.72C135.081 17.4453 136.531 18.4907 137.598 19.856C138.707 21.2213 139.475 22.8427 139.902 24.72C140.371 26.5973 140.606 28.688 140.606 30.992V50H131.07V32.144C131.07 29.072 130.665 26.896 129.854 25.616C129.086 24.336 127.635 23.696 125.502 23.696C124.649 23.696 123.838 23.7813 123.07 23.952C122.345 24.08 121.683 24.2293 121.086 24.4V50H111.55Z" fill="#0E2D3E"/>
<path d="M152.49 46.53C152.49 47.0967 152.397 47.6067 152.21 48.06C152.023 48.5067 151.773 48.8867 151.46 49.2C151.147 49.5067 150.783 49.7433 150.37 49.91C149.957 50.07 149.523 50.15 149.07 50.15C148.617 50.15 148.183 50.07 147.77 49.91C147.357 49.7433 146.993 49.5067 146.68 49.2C146.367 48.8867 146.117 48.5067 145.93 48.06C145.743 47.6067 145.65 47.0967 145.65 46.53C145.65 45.9633 145.743 45.4567 145.93 45.01C146.117 44.5567 146.367 44.1767 146.68 43.87C146.993 43.5567 147.357 43.32 147.77 43.16C148.183 42.9933 148.617 42.91 149.07 42.91C149.523 42.91 149.957 42.9933 150.37 43.16C150.783 43.32 151.147 43.5567 151.46 43.87C151.773 44.1767 152.023 44.5567 152.21 45.01C152.397 45.4567 152.49 45.9633 152.49 46.53ZM151.76 46.53C151.76 46.09 151.693 45.69 151.56 45.33C151.427 44.9633 151.24 44.65 151 44.39C150.767 44.13 150.483 43.93 150.15 43.79C149.823 43.65 149.463 43.58 149.07 43.58C148.677 43.58 148.313 43.65 147.98 43.79C147.653 43.93 147.37 44.13 147.13 44.39C146.897 44.65 146.713 44.9633 146.58 45.33C146.447 45.69 146.38 46.09 146.38 46.53C146.38 46.97 146.447 47.3733 146.58 47.74C146.713 48.1 146.897 48.41 147.13 48.67C147.37 48.93 147.653 49.13 147.98 49.27C148.313 49.41 148.677 49.48 149.07 49.48C149.463 49.48 149.823 49.41 150.15 49.27C150.483 49.13 150.767 48.93 151 48.67C151.24 48.41 151.427 48.1 151.56 47.74C151.693 47.3733 151.76 46.97 151.76 46.53ZM150.06 48.52C149.907 48.22 149.733 47.9367 149.54 47.67C149.353 47.3967 149.19 47.18 149.05 47.02H148.38V48.52H147.67V44.64C147.85 44.6 148.04 44.57 148.24 44.55C148.44 44.53 148.623 44.52 148.79 44.52C149.363 44.52 149.8 44.6267 150.1 44.84C150.4 45.0533 150.55 45.3767 150.55 45.81C150.55 46.0567 150.483 46.2733 150.35 46.46C150.223 46.64 150.04 46.78 149.8 46.88C149.867 46.96 149.943 47.06 150.03 47.18C150.117 47.3 150.207 47.4333 150.3 47.58C150.393 47.7267 150.487 47.88 150.58 48.04C150.673 48.2 150.757 48.36 150.83 48.52H150.06ZM148.38 46.44H148.76C149.06 46.44 149.31 46.4 149.51 46.32C149.71 46.2333 149.81 46.06 149.81 45.8C149.81 45.5533 149.713 45.3833 149.52 45.29C149.333 45.19 149.107 45.14 148.84 45.14C148.767 45.14 148.69 45.1433 148.61 45.15C148.53 45.15 148.453 45.1533 148.38 45.16V46.44Z" fill="#333333"/>
</svg>
